:SAMPLES-PER-SECOND 25
:FULLY-SPECIFIED
:DEGREES
123
root  4.98126 74.7426 -44.0397 4.37996 -19.6094 -2.36184
RightUpLeg  -18.9015 -7.95584 8.28607
RightLeg  26.3454 0.250386 -0.0954324
RightFoot  -8.40867 -0.0815868 0.93511
RightToes  2.84633e-005 7.89722e-005 -0.000426369
Spine  5.96362 -0.0938887 5.71993
Spine1  11.9044 -0.556724 8.74596
HEad  35.131 15.5642 -16.8025
LeftShoulder1  -3.88251e-019 0 -3.92111e-022
LeftArm  -33.4036 0.00711612 -82.3878
LeftForeArm  31.8411 2.25503 -0.095923
LeftHand  -0.594132 -5.36198 6.72359
RightShoulder  7.45443e-017 -2.42657e-020 1.96277e-018
RightArm  1.09782 -6.84098 73.9276
RightForeArm  -0.182197 27.407 5.92094
RightHand  -1.60738 11.6775 -11.2941
LeftUpLeg  -22.5114 3.5514 2.21539
LeftLeg  48.9978 1.67214 2.52648
LeftFoot  -21.7007 -0.322358 -5.00095
LeftToes  3.91355e-005 3.11907e-005 -4.10385e-006
124
root  4.72529 75.1832 -43.925 4.05481 -17.6228 -2.04053
RightUpLeg  -15.8251 -6.38395 8.06049
RightLeg  21.2612 -2.92878 -1.51066
RightFoot  -6.66744 -0.120404 1.81282
RightToes  2.84633e-005 7.89722e-005 -0.000426369
Spine  5.3125 -0.255023 5.17839
Spine1  10.6094 -0.882166 8.35417
HEad  37.2059 14.2758 -15.6365
LeftShoulder1  -3.88251e-019 0 -3.92111e-022
LeftArm  -33.852 0.114493 -82.2951
LeftForeArm  33.364 2.002 0.570151
LeftHand  -0.559959 -5.14572 6.47403
RightShoulder  7.45443e-017 -2.42657e-020 1.96277e-018
RightArm  0.544133 -9.30973 74.2489
RightForeArm  0.157442 24.3804 5.10199
RightHand  -1.37563 11.0631 -10.0426
LeftUpLeg  -19.0604 2.0238 2.3913
LeftLeg  37.1542 1.07187 1.2268
LeftFoot  -20.3039 -0.335236 -5.81605
LeftToes  3.91355e-005 3.11907e-005 -4.10385e-006
125
root  4.49028 75.5235 -43.7756 3.48923 -16.5449 -2.01649
RightUpLeg  -12.344 -2.26792 7.75245
RightLeg  16.3618 -8.46033 -2.10407
RightFoot  -4.90887 -0.110268 1.37681
RightToes  2.84633e-005 7.89722e-005 -0.000426369
Spine  4.80074 -0.243988 4.67286
Spine1  9.58991 -0.824018 8.00511
HEad  38.2322 13.3283 -14.5163
LeftShoulder1  -3.88251e-019 0 -3.92111e-022
LeftArm  -34.2332 1.25075 -82.1588
LeftForeArm  32.508 1.97515 1.20367
LeftHand  -0.529166 -5.24781 6.08147
RightShoulder  7.45443e-017 -2.42657e-020 1.96277e-018
RightArm  -2.85008 -11.3373 74.2819
RightForeArm  4.14897 21.2529 5.56113
RightHand  -1.09843 10.7258 -8.2926
LeftUpLeg  -14.6349 2.10311 3.07615
LeftLeg  26.1545 1.01192 0.87226
LeftFoot  -16.3893 -0.165705 -5.99797
LeftToes  3.91355e-005 3.11907e-005 -4.10385e-006
126
root  4.27177 75.8004 -43.5762 3.4839 -16.2865 -2.098
RightUpLeg  -9.33304 2.44092 7.81772
RightLeg  11.2819 -13.5019 -1.96776
RightFoot  -2.84064 -0.0725 0.715184
RightToes  2.84633e-005 7.89722e-005 -0.000426369
Spine  4.19981 -0.232764 4.38374
Spine1  8.38619 -0.751645 7.62246
HEad  39.4409 12.7241 -14.0266
LeftShoulder1  -3.88251e-019 0 -3.92111e-022
LeftArm  -35.8127 3.23396 -81.7009
LeftForeArm  30.3952 2.02749 1.15304
LeftHand  -0.559611 -5.3801 6.34116
RightShoulder  7.45443e-017 -2.42657e-020 1.96277e-018
RightArm  -11.2357 -12.2096 73.1228
RightForeArm  13.6677 16.5775 7.68047
RightHand  -1.35283 10.936 -9.98029
LeftUpLeg  -11.502 4.52007 3.677
LeftLeg  19.2047 -0.180826 0.259389
LeftFoot  -9.85048 0.136527 -5.95569
LeftToes  3.91355e-005 3.11907e-005 -4.10385e-006
127
root  4.07464 76.0091 -43.3529 3.21058 -16.3562 -2.01909
RightUpLeg  -6.42611 4.04713 8.48341
RightLeg  6.92281 -15.1198 -2.23479
RightFoot  -1.46472 -0.0944215 0.975628
RightToes  2.84633e-005 7.89722e-005 -0.000426369
Spine  3.57875 -0.283358 3.99726
Spine1  7.14024 -0.77722 6.75339
HEad  42.0137 12.2952 -13.0322
LeftShoulder1  -3.88251e-019 0 -3.92111e-022
LeftArm  -36.5603 5.14888 -81.0503
LeftForeArm  27.1022 2.10004 1.18753
LeftHand  -0.602503 -5.06211 6.99062
RightShoulder  7.45443e-017 -2.42657e-020 1.96277e-018
RightArm  -22.3857 -11.6396 72.4706
RightForeArm  26.1753 10.1845 8.06919
RightHand  -1.18904 10.6233 -8.98968
LeftUpLeg  -8.98223 5.88882 3.9546
LeftLeg  15.8535 -1.25008 -0.207061
LeftFoot  -9.80827 0.139079 -6.01034
LeftToes  3.91355e-005 3.11907e-005 -4.10385e-006
128
root  3.95788 76.186 -43.0497 2.15343 -15.979 -1.22503
RightUpLeg  -3.24864 3.64765 8.24807
RightLeg  3.44182 -15.2003 -2.24281
RightFoot  -0.975839 -0.099941 1.0266
RightToes  2.84633e-005 7.89722e-005 -0.000426369
Spine  3.18123 -0.378613 3.47075
Spine1  6.34211 -0.895518 5.70575
HEad  44.2246 11.6653 -11.891
LeftShoulder1  -3.88251e-019 0 -3.92111e-022
LeftArm  -37.1445 5.45139 -80.7064
LeftForeArm  24.8466 2.12388 1.69475
LeftHand  -0.603609 -5.1247 6.96162
RightShoulder  7.45443e-017 -2.42657e-020 1.96277e-018
RightArm  -26.1123 -10.7606 72.5685
RightForeArm  29.8481 5.34029 4.88413
RightHand  -1.15755 9.63789 -9.30204
LeftUpLeg  -6.12047 4.19698 3.2576
LeftLeg  12.7992 0.0726355 -0.00210407
LeftFoot  -8.33733 0.198507 -5.66156
LeftToes  3.91355e-005 3.11907e-005 -4.10385e-006
129
root  3.92163 76.2061 -42.736 1.53899 -16.7242 -0.859353
RightUpLeg  -2.00566 3.27412 7.88353
RightLeg  3.15293 -14.2409 -2.249
RightFoot  -1.38974 -0.138406 1.47837
RightToes  2.84633e-005 7.89722e-005 -0.000426369
Spine  2.62977 0.270618 3.09141
Spine1  5.26577 0.462347 4.9738
HEad  46.5635 10.6262 -10.56
LeftShoulder1  -3.88251e-019 0 -3.92111e-022
LeftArm  -37.097 5.39544 -80.5657
LeftForeArm  24.6094 2.12529 1.79398
LeftHand  -0.657295 -4.88932 7.71837
RightShoulder  7.45443e-017 -2.42657e-020 1.96277e-018
RightArm  -26.9581 -11.3341 72.4579
RightForeArm  29.3918 2.81164 2.04707
RightHand  -1.19534 8.71103 -10.1732
LeftUpLeg  -4.9486 3.79603 2.76024
LeftLeg  12.7985 1.22264 0.300933
LeftFoot  -8.74347 0.169544 -5.0594
LeftToes  3.91355e-005 3.11907e-005 -4.10385e-006
130
root  3.94928 76.1365 -42.4457 1.2475 -18.3803 -1.37163
RightUpLeg  -1.55122 3.16822 8.07193
RightLeg  4.1674 -12.6312 -2.08903
RightFoot  -2.1719 -0.211482 2.45516
RightToes  2.84633e-005 7.89722e-005 -0.000426369
Spine  2.23052 1.11758 3.1669
Spine1  4.49866 2.19567 4.98888
HEad  48.0198 9.69376 -9.85166
LeftShoulder1  -3.88251e-019 0 -3.92111e-022
LeftArm  -37.5822 5.68617 -80.6816
LeftForeArm  24.8077 2.15064 1.20928
LeftHand  -0.634604 -4.80382 7.51861
RightShoulder  7.45443e-017 -2.42657e-020 1.96277e-018
RightArm  -27.0931 -11.7166 71.8103
RightForeArm  28.8728 1.30581 0.637277
RightHand  -1.12659 8.40595 -9.81179
LeftUpLeg  -5.01364 6.20256 3.33347
LeftLeg  15.2265 0.916431 0.393153
LeftFoot  -10.2776 0.122743 -6.8383
LeftToes  3.91355e-005 3.11907e-005 -4.10385e-006
131
root  3.97476 76.0467 -42.2043 1.10726 -18.6021 -1.76459
RightUpLeg  -1.31322 3.0647 8.29644
RightLeg  5.07219 -12.3574 -2.16985
RightFoot  -3.14663 -0.234854 2.97779
RightToes  2.84633e-005 7.89722e-005 -0.000426369
Spine  1.79351 1.57053 3.27552
Spine1  3.63574 3.149 4.82514
HEad  48.5911 8.36915 -8.7269
LeftShoulder1  -3.88251e-019 0 -3.92111e-022
LeftArm  -37.5112 6.52239 -81.0193
LeftForeArm  23.5738 2.21137 0.611881
LeftHand  -0.601551 -4.60291 7.27513
RightShoulder  7.45443e-017 -2.42657e-020 1.96277e-018
RightArm  -27.6365 -12.308 70.9617
RightForeArm  30.298 0.921536 0.582817
RightHand  -1.15167 8.45446 -9.99099
LeftUpLeg  -6.52007 7.06885 3.71324
LeftLeg  19.4086 0.370157 0.473553
LeftFoot  -11.0055 0.0919431 -8.90094
LeftToes  3.91355e-005 3.11907e-005 -4.10385e-006
132
root  4.01089 75.9936 -41.9777 1.33858 -18.0978 -1.58543
RightUpLeg  -1.57542 3.01449 8.21701
RightLeg  5.74499 -12.8289 -2.88254
RightFoot  -3.95498 -0.278088 3.88588
RightToes  2.84633e-005 7.89722e-005 -0.000426369
Spine  1.27582 1.66056 3.24737
Spine1  2.59495 3.35626 4.32767
HEad  48.7725 9.19109 -8.23337
LeftShoulder1  -3.88251e-019 0 -3.92111e-022
LeftArm  -37.6008 7.04074 -81.2941
LeftForeArm  22.1307 2.26572 0.196295
LeftHand  -0.593635 -4.75073 7.08761
RightShoulder  7.45443e-017 -2.42657e-020 1.96277e-018
RightArm  -27.1167 -12.8028 70.1833
RightForeArm  31.3391 1.71513 1.33453
RightHand  -1.22519 8.70813 -10.4221
LeftUpLeg  -9.23005 5.96402 3.31329
LeftLeg  23.6506 0.955678 0.795972
LeftFoot  -11.8016 0.0381977 -8.14952
LeftToes  3.91355e-005 3.11907e-005 -4.10385e-006
